<svg xmlns="http://www.w3.org/2000/svg" width="100" height="57" fill="none" xmlns:v="https://vecta.io/nano"><path d="M103.893 47.268c-3.648 3.375-7.858 5.063-12.63 5.063-3.152 0-6.124-.585-8.916-1.755-2.792-1.215-5.246-2.903-7.362-5.063-2.07-2.16-3.715-4.748-4.93-7.764-1.216-3.06-1.824-6.413-1.824-10.06 0-3.285.608-6.4 1.824-9.316s2.882-5.468 4.998-7.63c2.16-2.16 4.706-3.87 7.632-5.13s6.08-1.9 9.456-1.9c4.458 0 8.353.945 11.685 2.835 3.332 1.845 5.83 4.388 7.497 7.63l-8.24 6.2c-1.08-2.16-2.657-3.825-4.728-4.996-2.026-1.215-4.233-1.823-6.62-1.823-1.846 0-3.535.383-5.066 1.148-1.486.72-2.77 1.755-3.85 3.105-1.08 1.305-1.914 2.835-2.5 4.6s-.878 3.645-.878 5.67c0 2.07.315 3.983.946 5.738s1.508 3.285 2.634 4.6a12.32 12.32 0 0 0 3.985 2.97c1.576.72 3.3 1.08 5.2 1.08 4.323 0 8.217-2.003 11.685-6.008v-1.485h-9.32v-8.034h18.507V51.98h-9.186v-4.726zm27.587-22.683v27.4h-11.077V4.062h8.645l22.357 28.152V4.062h11.077v47.932h-8.915l-22.087-27.4zm56.248 28.085c-2.972 0-5.65-.473-8.037-1.418-2.342-1-4.346-2.318-6.012-3.983-1.62-1.665-2.86-3.578-3.715-5.738a18.88 18.88 0 0 1-1.283-6.886c0-2.565.428-4.973 1.283-7.223.856-2.295 2.094-4.298 3.715-6.008s3.603-3.06 5.944-4.05c2.387-1 5.088-1.485 8.105-1.485s5.697.495 8.038 1.485 4.323 2.34 5.944 4.05a16.27 16.27 0 0 1 3.647 5.806c.856 2.205 1.284 4.523 1.284 6.954l-.068 1.9c-.045.585-.113 1.103-.203 1.553h-26.207c.18 2.385 1.036 4.208 2.567 5.468 1.576 1.215 3.355 1.823 5.336 1.823 1.576 0 3.085-.383 4.525-1.148 1.486-.765 2.477-1.8 2.972-3.105l9.186 2.565c-1.396 2.8-3.557 5.063-6.484 6.82s-6.44 2.633-10.537 2.633zm7.498-21.738c-.225-2.25-1.036-4.028-2.432-5.333s-3.13-1.958-5.2-1.958c-2.116 0-3.872.675-5.268 2.025-1.35 1.305-2.14 3.06-2.364 5.266h15.265zm48.328 21.062l-5.74-18.565-5.8 18.565H220.32l-12.1-35.443h11.145l7.294 22.616 6.08-22.616h10.132l6.08 22.616 7.294-22.616H267.4l-12.1 35.443h-11.753zm41.924.676c-3.017 0-6-.473-8.916-1.418-2.927-1-5.403-2.408-7.43-4.253l3.85-6.616c2.162 1.485 4.256 2.633 6.282 3.443 2.07.8 4.053 1.215 5.944 1.215 1.396 0 2.476-.248 3.242-.743s1.148-1.215 1.148-2.16-.495-1.688-1.486-2.228c-.945-.585-2.634-1.193-5.066-1.823l-6.08-1.958c-1.62-.63-2.95-1.328-3.985-2.093s-1.778-1.643-2.23-2.633-.675-2.16-.675-3.5c0-1.8.36-3.443 1.08-4.928a11.09 11.09 0 0 1 2.972-3.781c1.26-1.035 2.746-1.845 4.458-2.43 1.756-.585 3.647-.878 5.673-.878 2.657 0 5.133.36 7.43 1.08 2.34.72 4.593 2.025 6.754 3.916l-4.187 6.48c-2.027-1.395-3.828-2.408-5.404-3.038s-3.107-.945-4.593-.945c-1.17 0-2.16.248-2.972.743-.8.45-1.216 1.193-1.216 2.228a2.41 2.41 0 0 0 1.284 2.228c.9.495 2.544 1.035 4.93 1.62l6.35 2.025c1.756.675 3.174 1.44 4.255 2.295 1.08.8 1.87 1.755 2.364 2.835s.743 2.363.743 3.848c0 3.5-1.306 6.3-3.918 8.37s-6.146 3.105-10.604 3.105z" fill="#000"/><g fill-rule="evenodd"><path d="M.007 19.012H.006v18.815c0 10.366 9.36 18.77 20.904 18.77s20.904-8.403 20.904-18.77v-.107h0l-.001-18.708C41.685 29.22 32.376 37.46 20.91 37.46S.136 29.22.007 19.012z" fill="url(#A)"/><path d="M20.91 37.578c11.545 0 20.904-8.412 20.904-18.79a17.06 17.06 0 0 0-1.22-6.341h-12.63c.295-.18 5.274-4.705 7.727-6.945C31.91 2.103 26.683 0 20.91 0 9.365 0 .006 8.412.006 18.79s9.36 18.79 20.904 18.79zm-9.977-18.79c0-4.952 4.467-8.967 9.977-8.967 2.755 0 5.25 1.004 7.055 2.627L20.9 18.79c-.665.384-2.93 2.544-3.98 3.576h13.13c-1.537 3.173-5.056 5.39-9.152 5.39-5.5 0-9.977-4.015-9.977-8.967z" fill="url(#B)"/></g><defs><linearGradient id="A" x1="20.998" y1="56.537" x2="20.792" y2="24.001" gradientUnits="userSpaceOnUse"><stop stop-color="#7795f8"/><stop offset="1" stop-color="#5d65d1"/></linearGradient><linearGradient id="B" x1="20.919" y1=".001" x2="16.989" y2="37.153" gradientUnits="userSpaceOnUse"><stop stop-color="#7795f8"/><stop offset="1" stop-color="#5d65d1"/></linearGradient></defs></svg>